<?xml version="1.0" standalone="no"?><!DOCTYPE svg PUBLIC "-//W3C//DTD SVG 1.1//EN"
    "http://www.w3.org/Graphics/SVG/1.1/DTD/svg11.dtd">
<svg t="1648255902128" class="icon" viewBox="0 0 1024 1024" version="1.1"
    xmlns="http://www.w3.org/2000/svg" p-id="2335" width="128" height="128">
    <defs>
        <style type="text/css">@font-face { font-family: feedback-iconfont; src:
            url("//at.alicdn.com/t/font_1031158_u69w8yhxdu.woff2?t=1630033759944") format("woff2"),
            url("//at.alicdn.com/t/font_1031158_u69w8yhxdu.woff?t=1630033759944") format("woff"),
            url("//at.alicdn.com/t/font_1031158_u69w8yhxdu.ttf?t=1630033759944") format("truetype");
            }
        </style>
    </defs>
    <path
        d="M227.972236 345.024729S181.117026 158.966949 337.357853 62.530408 699.42084 14.141754 757.691683 119.267807s39.699142 230.016486 39.699142 230.016486l-62.530408-5.622625-5.622625-55.374339a312.652038 312.652038 0 0 1-123.527372-36.97302l-64.234233-34.076517a275.16787 275.16787 0 0 1-107.51141 49.070184C368.537866 281.13126 290.502643 289.65039 290.502643 289.65039l-2.896504 42.595645z"
        fill="#FF9FC2" p-id="2336"></path>
    <path
        d="M443.846967 695.331318h133.068797l29.816952 92.688124 81.954022 12.778694v46.85521s-60.656199 29.816952-175.664443 35.098812a284.36853 284.36853 0 0 1-194.917673-72.412597l105.466818-19.08285z"
        fill="#FFECE3" p-id="2337"></path>
    <path
        d="M711.177238 626.155989m-61.848877 0a61.848877 61.848877 0 1 0 123.697755 0 61.848877 61.848877 0 1 0-123.697755 0Z"
        fill="#FF9FC2" p-id="2338"></path>
    <path
        d="M815.451379 743.379206l29.816952-29.816952 109.726382 68.153033-76.672161 63.893468-62.871173-102.229549z"
        fill="#FF9FC2" p-id="2339"></path>
    <path
        d="M793.642408 701.294708m-49.410949 0a49.410949 49.410949 0 1 0 98.821898 0 49.410949 49.410949 0 1 0-98.821898 0Z"
        fill="#FF9FC2" p-id="2340"></path>
    <path
        d="M310.778171 626.155989m-61.848878 0a61.848877 61.848877 0 1 0 123.697755 0 61.848877 61.848877 0 1 0-123.697755 0Z"
        fill="#FF9FC2" p-id="2341"></path>
    <path
        d="M206.333648 743.379206l-29.816952-29.816952-109.556 68.153033 76.672161 63.893468 62.700791-102.229549z"
        fill="#FF9FC2" p-id="2342"></path>
    <path
        d="M228.313001 701.294708m-49.410949 0a49.410949 49.410949 0 1 0 98.821898 0 49.410949 49.410949 0 1 0-98.821898 0Z"
        fill="#FF9FC2" p-id="2343"></path>
    <path
        d="M232.2318 837.771156c-42.595646 49.751714-51.114775 167.486078-51.114774 167.486078h655.972941s9.88219-103.59261-46.85521-158.966949a185.376249 185.376249 0 0 0-104.955671-43.277176 254.210813 254.210813 0 0 1-162.715366 55.37434 339.061338 339.061338 0 0 1-190.658109-52.13707 97.62922 97.62922 0 0 0-99.673811 31.520777z"
        fill="#FFF385" p-id="2344"></path>
    <path
        d="M758.373214 352.691945a56.907782 56.907782 0 0 0-17.038258 2.555739V272.612131l-96.606925-15.675197-102.229549-40.380672-129.149997 43.277176-120.630868 12.778693v82.46517a57.41893 57.41893 0 1 0-1.022296 103.933375v30.839248s23.512796 212.978228 227.971895 212.978227c161.863453 0 223.71233-200.199534 223.712331-200.199534v-37.484168a56.907782 56.907782 0 0 0 17.038258 2.555739 57.41893 57.41893 0 0 0 0-115.008243z"
        fill="#FFECE3" p-id="2345"></path>
    <path
        d="M512 511.147746c35.439577 0 83.82823-15.675198 92.34736 4.259565S572.996964 579.300779 513.363061 579.300779s-118.245512-48.729418-92.34736-72.412597c15.675198-14.141754 90.984299 4.259565 90.984299 4.259564z"
        fill="#EC7094" p-id="2346" data-spm-anchor-id="a313x.7781069.0.i0" class="selected"></path>
    <path
        d="M685.279086 525.289501m-46.85521 0a46.85521 46.85521 0 1 0 93.71042 0 46.85521 46.85521 0 1 0-93.71042 0Z"
        fill="#EC7094" p-id="2347"></path>
    <path
        d="M338.720914 525.289501m-46.85521 0a46.85521 46.85521 0 1 0 93.71042 0 46.85521 46.85521 0 1 0-93.71042 0Z"
        fill="#EC7094" p-id="2348"></path>
    <path
        d="M395.799079 351.328884a46.344062 46.344062 0 0 1 27.431596-7.326451 47.025593 47.025593 0 0 1 27.601978 7.326451 12.778694 12.778694 0 0 0 17.038258-19.764379 70.197624 70.197624 0 0 0-43.958706-13.119459 69.686476 69.686476 0 0 0-43.788324 13.289841 12.608311 12.608311 0 0 0-1.533443 17.038259 12.949076 12.949076 0 0 0 17.208641 2.555738zM600.598943 318.445046a69.686476 69.686476 0 0 0-43.788324 13.289841 12.608311 12.608311 0 0 0-1.533443 17.038259 12.949076 12.949076 0 0 0 17.890171 1.874208 46.344062 46.344062 0 0 1 27.601978-7.326451 46.85521 46.85521 0 0 1 27.601979 7.326451 12.778694 12.778694 0 0 0 17.038258-19.76438 70.197624 70.197624 0 0 0-44.810619-12.437928zM453.729157 419.6523a8.519129 8.519129 0 0 0 10.904485-13.119459 66.789972 66.789972 0 0 0-41.232585-12.267546 66.278824 66.278824 0 0 0-41.062202 12.267546 8.519129 8.519129 0 0 0 10.904485 13.119459 49.922097 49.922097 0 0 1 30.157717-8.348747 51.114775 51.114775 0 0 1 30.3281 8.348747zM600.598943 394.265295a66.278824 66.278824 0 0 0-41.062203 12.267546 8.519129 8.519129 0 0 0 10.904486 13.119459 59.293139 59.293139 0 0 1 60.485816 0 8.519129 8.519129 0 0 0 10.904486-13.119459 66.789972 66.789972 0 0 0-41.232585-12.267546zM597.191291 838.623069l-11.24525 2.555739a8.519129 8.519129 0 0 0 1.703825 17.038258h1.703826l11.926781-2.726121a8.519129 8.519129 0 1 0-3.918799-17.038258zM602.302769 499.902496a71.560684 71.560684 0 0 0-41.402968 0l-13.630607 2.214973a288.116946 288.116946 0 0 1-34.076516 2.555739 289.65039 289.65039 0 0 1-34.076516-2.555739l-13.630607-2.214973a71.560684 71.560684 0 0 0-41.402967 0 26.579683 26.579683 0 0 0-13.630607 31.520778c6.815303 26.920448 47.195975 54.692809 103.251845 54.692808 55.715104 0 95.925394-27.942743 102.229549-54.692808a26.579683 26.579683 0 0 0-13.630606-31.520778z m-2.896504 27.261213c-4.259565 17.038258-34.076516 41.743733-86.38397 41.914115-51.114775 0-82.294787-25.04624-86.554351-41.914115a9.711807 9.711807 0 0 1 5.28186-12.267546 14.312137 14.312137 0 0 1 6.304155-1.022295 163.567279 163.567279 0 0 1 24.023944 3.066886l14.312137 2.214974a308.733239 308.733239 0 0 0 36.802638 2.726121 306.688648 306.688648 0 0 0 36.802638-2.726121l14.312137-2.214974a76.672162 76.672162 0 0 1 30.328099-2.044591 9.711807 9.711807 0 0 1 4.770713 12.267546z"
        fill="#4C4497" p-id="2349"></path>
    <path
        d="M974.929476 774.048071a17.038258 17.038258 0 0 0-8.689512-12.778694l-103.762993-56.7374a65.256529 65.256529 0 0 0-70.708771-72.58298 74.797954 74.797954 0 0 0-51.114775-77.694457 240.580206 240.580206 0 0 0 13.289842-57.930078 87.406265 87.406265 0 0 0 57.41893-146.188256 333.779478 333.779478 0 0 0 8.859894-75.138718C820.051708 113.134035 693.45745 0 512 0S203.948292 113.134035 203.948292 274.997488a334.461009 334.461009 0 0 0 8.859894 75.138718 87.406265 87.406265 0 0 0 57.41893 146.188256 240.580206 240.580206 0 0 0 13.289841 57.930078 74.797954 74.797954 0 0 0-51.114774 77.694457 66.61959 66.61959 0 0 0-15.334433 0 65.767677 65.767677 0 0 0-55.374339 72.071832l-103.933375 57.248548a17.038258 17.038258 0 0 0-3.578034 27.261213l86.383969 82.805935a17.038258 17.038258 0 0 0 11.756398 4.770712h2.726121a17.038258 17.038258 0 0 0 12.267546-9.030277l53.329749-103.251844h6.474538a68.153033 68.153033 0 0 0 10.222955 0 66.278824 66.278824 0 0 0 55.885487-62.700791 75.138719 75.138719 0 0 0 14.141754 1.533444 78.716753 78.716753 0 0 0 11.926781-0.851913 75.479484 75.479484 0 0 0 51.114774-31.861543A242.284032 242.284032 0 0 0 426.808709 700.10203l-12.267546 59.122756a27.261213 27.261213 0 0 1-23.853561 21.638588l-77.524075 8.007981a156.070445 156.070445 0 0 0-139.20257 136.306066l-10.222955 78.716753a17.038258 17.038258 0 0 0 15.16405 18.401319h2.214974a17.038258 17.038258 0 0 0 17.038258-14.823285l10.222955-78.716753a122.164311 122.164311 0 0 1 108.87447-106.148349l19.423614-2.044591A346.047024 346.047024 0 0 0 512 865.543517c11.926781 0 23.853561 0 35.439577-1.533443a8.519129 8.519129 0 0 0 7.667216-9.20066 8.689512 8.689512 0 0 0-9.200659-7.667216c-11.074868 1.022295-22.490501 1.533443-34.076517 1.533443A341.617077 341.617077 0 0 1 366.663657 817.836394l28.113127-2.896504A61.167347 61.167347 0 0 0 448.447297 766.721619l11.586015-56.226252a238.535615 238.535615 0 0 0 103.933376 0l11.586015 56.226252a61.167347 61.167347 0 0 0 53.840896 48.559036l27.772361 2.896504a284.36853 284.36853 0 0 1-27.601978 11.586016 8.519129 8.519129 0 0 0 2.896504 17.038258 8.519129 8.519129 0 0 0 2.896503 0 287.605799 287.605799 0 0 0 52.307453-24.535092l19.423615 2.044591a122.164311 122.164311 0 0 1 108.874469 106.148349l10.222955 78.716753a17.038258 17.038258 0 0 0 17.038259 14.823284h2.214973a17.038258 17.038258 0 0 0 14.652902-19.082849l-10.222955-78.716753a156.070445 156.070445 0 0 0-139.202569-136.306065l-77.524075-8.007982a27.261213 27.261213 0 0 1-23.853562-21.638588L597.191291 700.10203a242.284032 242.284032 0 0 0 57.248548-30.668865 75.479484 75.479484 0 0 0 51.114774 31.861543 78.54637 78.54637 0 0 0 11.926781 0.851913 75.138719 75.138719 0 0 0 14.141754-1.533443 66.278824 66.278824 0 0 0 55.885487 62.70079 68.153033 68.153033 0 0 0 10.393338 0h6.474538l53.329748 103.251845a17.038258 17.038258 0 0 0 12.267546 9.030276h2.726121a17.038258 17.038258 0 0 0 11.756398-4.770712l86.38397-82.805935a17.038258 17.038258 0 0 0 4.089182-13.971371z m-219.963914-311.800126v-61.167347l17.038258 9.711807a8.519129 8.519129 0 1 0 8.178364-14.993667l-25.898152-14.141754v-25.72777a53.840896 53.840896 0 0 1 0 106.318731zM512 34.076516c12.608311 0 25.04624 0 36.97302 2.044591a8.519129 8.519129 0 0 0-2.896504 5.963391l-2.385356 35.098812a8.519129 8.519129 0 0 0 7.837599 9.030277 8.519129 8.519129 0 0 0 8.519129-8.007982L563.114775 43.106793a8.348747 8.348747 0 0 0-1.703826-5.622625c134.431857 18.230936 224.564243 110.748678 224.564243 237.51332a296.124928 296.124928 0 0 1-4.941095 53.329748 87.576647 87.576647 0 0 0-26.068535-6.474538v-40.551055a17.038258 17.038258 0 0 0-16.186345-17.038258 393.754147 393.754147 0 0 1-95.584629-22.320118 307.710943 307.710943 0 0 1-89.11009-46.514445l-1.533443-0.851913 5.96339-86.383969a8.519129 8.519129 0 0 0-17.038258-1.192678l-5.963391 86.383969a17.038258 17.038258 0 0 0-3.066886 1.703826 337.357513 337.357513 0 0 1-104.103758 49.751713 562.262521 562.262521 0 0 1-141.587926 19.423615 17.038258 17.038258 0 0 0-17.038258 17.038258v40.721437a87.576647 87.576647 0 0 0-26.068535 6.474538 296.465693 296.465693 0 0 1-4.941095-53.329748C238.024808 133.068797 350.647695 34.076516 512 34.076516zM223.712671 408.918197a54.011279 54.011279 0 0 1 45.321767-53.159366v25.898153l-25.898153 14.141754a8.519129 8.519129 0 1 0 8.178364 14.993667l17.038259-9.711807v61.167347A54.011279 54.011279 0 0 1 223.712671 408.918197zM147.551657 830.955853l-52.988983-51.114775 79.227901-43.277176a66.108442 66.108442 0 0 0 14.823284 14.652903z m85.191291-101.207254a32.202308 32.202308 0 0 1-36.632255-26.750065A32.031925 32.031925 0 0 1 222.34961 666.195896h5.111478a31.861543 31.861543 0 0 1 18.742084 6.133773 32.372691 32.372691 0 0 1 4.089182 3.578034l2.214973 2.555739a31.861543 31.861543 0 0 1 6.474539 14.652902 32.202308 32.202308 0 0 1-26.920448 36.461873z m81.954022-62.01926a41.743733 41.743733 0 0 1-31.180013-7.496833 42.25488 42.25488 0 0 1-5.452242-4.941095l-2.214974-2.726122a41.402967 41.402967 0 0 1 21.979353-66.619589A244.15824 244.15824 0 0 0 343.491626 647.453812a41.402967 41.402967 0 0 1-29.476186 20.105145z m-10.904485-194.917674V297.999136a573.507771 573.507771 0 0 0 134.943005-20.44591 391.879939 391.879939 0 0 0 104.785288-48.047888A367.685612 367.685612 0 0 0 631.267807 273.975192a483.205003 483.205003 0 0 0 88.769326 22.490501v176.17559a208.889046 208.889046 0 0 1-417.778092 0z m406.192075 194.747292A41.402967 41.402967 0 0 1 680.508374 647.453812a244.15824 244.15824 0 0 0 46.344062-61.508112 41.402967 41.402967 0 0 1 21.979353 66.619589l-2.214973 2.726122a41.062202 41.062202 0 0 1-36.632256 12.437928z m81.954022 62.01926a32.202308 32.202308 0 0 1-26.750065-36.632256 31.861543 31.861543 0 0 1 6.474538-14.652902l2.214974-2.555738a32.372691 32.372691 0 0 1 4.089182-3.578035 31.861543 31.861543 0 0 1 18.742084-6.133773h5.111477a32.031925 32.031925 0 0 1 26.750066 36.632256 32.202308 32.202308 0 0 1-36.632256 26.920448z m85.191291 101.207253L835.726906 751.387187a66.108442 66.108442 0 0 0 14.823285-14.652902l79.2279 43.277176z"
        fill="#4C4497" p-id="2350"></path>
</svg>