<?xml version="1.0" standalone="no"?><!DOCTYPE svg PUBLIC "-//W3C//DTD SVG 1.1//EN"
    "http://www.w3.org/Graphics/SVG/1.1/DTD/svg11.dtd">
<svg t="1648260431391" class="icon" viewBox="0 0 1024 1024" version="1.1"
    xmlns="http://www.w3.org/2000/svg" p-id="2335" width="128" height="128">
    <defs>
        <style type="text/css">@font-face { font-family: feedback-iconfont; src:
            url("//at.alicdn.com/t/font_1031158_u69w8yhxdu.woff2?t=1630033759944") format("woff2"),
            url("//at.alicdn.com/t/font_1031158_u69w8yhxdu.woff?t=1630033759944") format("woff"),
            url("//at.alicdn.com/t/font_1031158_u69w8yhxdu.ttf?t=1630033759944") format("truetype");
            }
        </style>
    </defs>
    <path
        d="M256.426084 356.440421l39.699149-9.882191 9.882191-66.789984a800.798269 800.798269 0 0 0 140.565654-14.141756c49.751722-12.778696 109.385636-32.713461 109.385635-32.713462s54.011288 35.439583 89.450871 39.699149 73.77567 12.778696 73.77567 12.778696l8.519131 58.270852 36.973026 9.882192L784.612177 235.63915l45.492157-52.477844s-29.816957-90.813931-103.592627-117.904766a263.581898 263.581898 0 0 0-143.462158-8.519131S460.885217-6.133774 360.018711 34.076522c-136.306088 54.011288-161.86348 167.486106-161.863479 167.486106l35.439583 26.920453z"
        fill="#6C9DFF" p-id="2336"></path>
    <path
        d="M299.362502 285.390873l253.87009-43.958714 166.123045 43.958714s-2.896504 49.751722 2.896504 51.114783 83.828244 12.778696 85.191306 76.672174-68.153044 65.25654-68.153045 65.25654l-8.51913 95.073497S733.497394 630.415659 693.798245 660.232616a193.895411 193.895411 0 0 1-80.93174 35.439582H402.614364s-69.516105-11.245252-87.917427-48.218278a622.237293 622.237293 0 0 1-31.180018-76.672175l4.259566-90.813931s-79.568679-18.401322-73.775671-73.775671 78.035236-59.633914 78.035236-59.633913z"
        fill="#FFECE3" p-id="2337"></path>
    <path
        d="M443.846956 695.331433h133.068819l29.816956 92.68814 81.954036 12.778696v46.855218s-60.656209 29.816957-175.664471 35.098818a284.368577 284.368577 0 0 1-194.917707-72.41261l105.466836-19.082852z"
        fill="#FFECE3" p-id="2338"></path>
    <path
        d="M232.231754 837.771296c-42.595653 49.751722-51.114783 167.486106-51.114784 167.486106h655.973051s9.882191-103.592627-46.855218-158.966976a185.37628 185.37628 0 0 0-104.955688-43.277183 254.210855 254.210855 0 0 1-162.715393 55.374348 339.061395 339.061395 0 0 1-190.658141-52.137078 97.629236 97.629236 0 0 0-99.673827 31.520783z"
        fill="#FF9FC2" p-id="2339"></path>
    <path
        d="M685.279115 525.289588m-46.855218 0a46.855218 46.855218 0 1 0 93.710436 0 46.855218 46.855218 0 1 0-93.710436 0Z"
        fill="#EC7094" p-id="2340"></path>
    <path
        d="M338.720885 525.289588m-46.855218 0a46.855218 46.855218 0 1 0 93.710436 0 46.855218 46.855218 0 1 0-93.710436 0Z"
        fill="#EC7094" p-id="2341"></path>
    <path
        d="M451.003025 356.440421a12.778696 12.778696 0 0 0 17.038262-19.764383A70.368018 70.368018 0 0 0 423.401043 323.72696a69.686488 69.686488 0 0 0-43.788331 13.289843 12.608313 12.608313 0 0 0-1.533444 17.038262 12.949078 12.949078 0 0 0 17.890174 1.874208 46.34407 46.34407 0 0 1 27.431601-7.326452 47.0256 47.0256 0 0 1 27.601982 7.8376zM572.996975 356.440421a46.34407 46.34407 0 0 1 27.601982-7.326452 47.0256 47.0256 0 0 1 27.601983 7.326452 12.778696 12.778696 0 0 0 17.038261-19.764383 79.398296 79.398296 0 0 0-87.747044 0 12.608313 12.608313 0 0 0-1.533444 17.038261 12.949078 12.949078 0 0 0 17.038262 2.726122z"
        fill="#4C4497" p-id="2342"></path>
    <path
        d="M849.698334 924.325662a156.070471 156.070471 0 0 0-139.202593-136.306089l-77.524088-8.007982a27.4316 27.4316 0 0 1-24.023948-22.14974l-10.222956-42.254887h2.044591a148.914402 148.914402 0 0 0 148.914402-154.877793l-2.214974-52.818609a87.576662 87.576662 0 0 0 40.210296-157.94468l17.038261-112.793288 28.453896-28.113131a17.038261 17.038261 0 0 0 5.111478-11.415635c0-3.23727 2.214974-78.376001-80.079827-132.728053-65.597305-43.277183-147.892106-36.291496-170.38261-34.076523-25.216626-11.586018-137.328384-56.567027-255.573916-7.8376a272.612177 272.612177 0 0 0-154.366645 175.834854 17.038261 17.038261 0 0 0 5.111478 17.038261l37.82494 34.076523 12.608313 101.036888a87.406279 87.406279 0 0 0 41.743739 156.581619l-2.214973 52.818609A148.914402 148.914402 0 0 0 423.23066 715.606964h2.044591l-10.222956 43.447566a27.261218 27.261218 0 0 1-23.853566 21.638591l-77.524088 8.007983a156.070471 156.070471 0 0 0-139.202592 136.306088l-10.222957 78.716766a17.038261 17.038261 0 0 0 14.652905 18.571705h2.214973a17.038261 17.038261 0 0 0 17.038262-14.823287l10.222956-78.716766a122.164332 122.164332 0 0 1 108.874488-106.148367l19.423618-2.044591A346.047082 346.047082 0 0 0 512 865.543661c11.926783 0 23.853565 0 35.439583-1.533443a8.519131 8.519131 0 0 0 7.667217-9.200661 8.689513 8.689513 0 0 0-9.200661-7.667218c-11.07487 1.022296-22.490505 1.533443-34.076522 1.533444A341.617134 341.617134 0 0 1 366.663633 817.83653l28.113131-2.896504A60.996975 60.996975 0 0 0 448.276904 766.721747l11.926782-51.114783H563.114783l11.926783 51.114783a61.167357 61.167357 0 0 0 53.840905 48.559044l27.772365 2.896504a284.368577 284.368577 0 0 1-27.601983 11.586018 8.519131 8.519131 0 0 0 2.896505 17.038261 8.519131 8.519131 0 0 0 2.896504 0 287.605846 287.605846 0 0 0 52.307462-24.535096l19.423617 2.044591a122.164332 122.164332 0 0 1 108.874488 106.148367l10.222957 78.716766a17.038261 17.038261 0 0 0 17.038261 14.823287h2.214974a17.038261 17.038261 0 0 0 14.652904-19.082853z m-103.76301-450.32124l-2.555739-59.804296 15.6752 8.519131a8.519131 8.519131 0 0 0 8.178365-14.99367l-24.535095-13.460226-1.192679-26.75007a53.840905 53.840905 0 0 1 4.429948 106.489131z m-511.147831-52.988992a53.840905 53.840905 0 0 1 48.388661-53.500139l-1.192678 26.75007-25.557392 13.460226a8.519131 8.519131 0 1 0 8.178366 14.99367l15.6752-8.519131-2.555739 59.804296a54.011288 54.011288 0 0 1-43.617949-52.988992z m52.137079-140.565653l-2.214974 52.818609a87.576662 87.576662 0 0 0-17.038261 2.385357l-11.926783-95.92541a17.038261 17.038261 0 0 0-5.452244-10.563722l-34.076522-31.009635a240.921011 240.921011 0 0 1 131.364993-142.95101c105.807601-43.788331 209.911376 0 228.312698 7.667217l-4.259565 20.105148a8.519131 8.519131 0 0 0 6.985687 9.711809H580.153044a8.519131 8.519131 0 0 0 8.178365-7.496835l3.23727-20.27553c15.6752-2.044591 90.813931-9.711809 147.892106 27.942748a132.898436 132.898436 0 0 1 64.575009 96.777322l-27.090835 26.75007a17.038261 17.038261 0 0 0-4.941095 9.541426l-17.038261 108.874489a88.08781 88.08781 0 0 0-15.164053-1.874209l-2.214974-52.818609a17.038261 17.038261 0 0 0-18.230939-17.038261 265.967255 265.967255 0 0 1-82.465184-12.267548 210.763289 210.763289 0 0 1-70.027252-31.350401l14.993669-92.517757a8.519131 8.519131 0 1 0-17.038261-2.726122l-14.993669 92.68814h-2.214974a406.532909 406.532909 0 0 1-110.067167 32.883844 661.766059 661.766059 0 0 1-133.579966 12.608313 17.038261 17.038261 0 0 0-17.890174 18.060557z m54.352052 365.811464A113.985966 113.985966 0 0 1 308.392781 562.262615l11.074869-263.752281a745.253538 745.253538 0 0 0 124.379306-13.289844 504.843675 504.843675 0 0 0 110.578314-31.861548 278.916333 278.916333 0 0 0 73.264523 31.520783 336.846421 336.846421 0 0 0 77.012939 13.460226L715.607219 562.262615a115.008262 115.008262 0 0 1-114.837879 119.267827H423.23066a113.985966 113.985966 0 0 1-82.805949-35.269201z"
        fill="#4C4497" p-id="2343"></path>
    <path
        d="M597.191305 838.623209l-11.245252 2.555739a8.519131 8.519131 0 0 0 1.703826 17.038261h1.703826l11.926783-2.726122a8.519131 8.519131 0 1 0-3.9188-17.038261zM571.633914 509.78477a8.519131 8.519131 0 0 0-8.519131 8.519131c0 21.979357-23.001652 39.869531-51.114783 39.869531s-51.114783-17.038261-51.114783-39.869531a8.519131 8.519131 0 1 0-17.038261 0c0 31.3504 30.498487 56.907792 68.153044 56.907792s68.153044-25.557392 68.153044-56.907792a8.519131 8.519131 0 0 0-8.51913-8.519131zM636.208923 434.134891a8.519131 8.519131 0 0 0 5.452244-14.993669 75.309114 75.309114 0 0 0-82.124419 0 8.519131 8.519131 0 0 0 10.904487 13.119461 50.092487 50.092487 0 0 1 30.157722-8.348748 51.114783 51.114783 0 0 1 30.328105 8.348748 8.519131 8.519131 0 0 0 5.281861 1.874208z"
        fill="#4C4497" p-id="2344"></path>
    <path
        d="M431.579408 420.504283m-33.90614 0a33.906139 33.906139 0 1 0 67.812279 0 33.906139 33.906139 0 1 0-67.812279 0Z"
        fill="#4C4497" p-id="2345"></path>
</svg>