<?xml version="1.0" standalone="no"?><!DOCTYPE svg PUBLIC "-//W3C//DTD SVG 1.1//EN"
    "http://www.w3.org/Graphics/SVG/1.1/DTD/svg11.dtd">
<svg t="1648260431391" class="icon" viewBox="0 0 1024 1024" version="1.1"
    xmlns="http://www.w3.org/2000/svg" p-id="2335" width="128" height="128">
    <defs>
        <style type="text/css">@font-face { font-family: feedback-iconfont; src:
            url("//at.alicdn.com/t/font_1031158_u69w8yhxdu.woff2?t=1630033759944") format("woff2"),
            url("//at.alicdn.com/t/font_1031158_u69w8yhxdu.woff?t=1630033759944") format("woff"),
            url("//at.alicdn.com/t/font_1031158_u69w8yhxdu.ttf?t=1630033759944") format("truetype");
            }
        </style>
    </defs>
    <path
        d="M256.426084 356.440421l39.699149-9.882191 9.882191-66.789984a800.798269 800.798269 0 0 0 140.565654-14.141756c49.751722-12.778696 109.385636-32.713461 109.385635-32.713462s54.011288 35.439583 89.450871 39.699149 73.77567 12.778696 73.77567 12.778696l8.519131 58.270852 36.973026 9.882192L784.612177 235.63915l45.492157-52.477844s-29.816957-90.813931-103.592627-117.904766a263.581898 263.581898 0 0 0-143.462158-8.519131S460.885217-6.133774 360.018711 34.076522c-136.306088 54.011288-161.86348 167.486106-161.863479 167.486106l35.439583 26.920453z"
        fill="#6C9DFF" p-id="2336"></path>
    <path
        d="M299.362502 285.390873l253.87009-43.958714 166.123045 43.958714s-2.896504 49.751722 2.896504 51.114783 83.828244 12.778696 85.191306 76.672174-68.153044 65.25654-68.153045 65.25654l-8.51913 95.073497S733.497394 630.415659 693.798245 660.232616a193.895411 193.895411 0 0 1-80.93174 35.439582H402.614364s-69.516105-11.245252-87.917427-48.218278a622.237293 622.237293 0 0 1-31.180018-76.672175l4.259566-90.813931s-79.568679-18.401322-73.775671-73.775671 78.035236-59.633914 78.035236-59.633913z"
        fill="#FFECE3" p-id="2337"></path>
    <path
        d="M443.846956 695.331433h133.068819l29.816956 92.68814 81.954036 12.778696v46.855218s-60.656209 29.816957-175.664471 35.098818a284.368577 284.368577 0 0 1-194.917707-72.41261l105.466836-19.082852z"
        fill="#FFECE3" p-id="2338"></path>
    <path
        d="M232.231754 837.771296c-42.595653 49.751722-51.114783 167.486106-51.114784 167.486106h655.973051s9.882191-103.592627-46.855218-158.966976a185.37628 185.37628 0 0 0-104.955688-43.277183 254.210855 254.210855 0 0 1-162.715393 55.374348 339.061395 339.061395 0 0 1-190.658141-52.137078 97.629236 97.629236 0 0 0-99.673827 31.520783z"
        fill="#FF9FC2" p-id="2339"></path>
    <path
        d="M685.279115 525.289588m-46.855218 0a46.855218 46.855218 0 1 0 93.710436 0 46.855218 46.855218 0 1 0-93.710436 0Z"
        fill="#EC7094" p-id="2340"></path>
    <path
        d="M338.720885 525.289588m-46.855218 0a46.855218 46.855218 0 1 0 93.710436 0 46.855218 46.855218 0 1 0-93.710436 0Z"
        fill="#EC7094" p-id="2341"></path>
    <path
        d="M451.003025 356.440421a12.778696 12.778696 0 0 0 17.038262-19.764383A70.368018 70.368018 0 0 0 423.401043 323.72696a69.686488 69.686488 0 0 0-43.788331 13.289843 12.608313 12.608313 0 0 0-1.533444 17.038262 12.949078 12.949078 0 0 0 17.890174 1.874208 46.34407 46.34407 0 0 1 27.431601-7.326452 47.0256 47.0256 0 0 1 27.601982 7.8376zM572.996975 356.440421a46.34407 46.34407 0 0 1 27.601982-7.326452 47.0256 47.0256 0 0 1 27.601983 7.326452 12.778696 12.778696 0 0 0 17.038261-19.764383 79.398296 79.398296 0 0 0-87.747044 0 12.608313 12.608313 0 0 0-1.533444 17.038261 12.949078 12.949078 0 0 0 17.038262 2.726122z"
        fill="#4C4497" p-id="2342"></path>

    <path
        d="M597.191305 838.623209l-11.245252 2.555739a8.519131 8.519131 0 0 0 1.703826 17.038261h1.703826l11.926783-2.726122a8.519131 8.519131 0 1 0-3.9188-17.038261zM571.633914 509.78477a8.519131 8.519131 0 0 0-8.519131 8.519131c0 21.979357-23.001652 39.869531-51.114783 39.869531s-51.114783-17.038261-51.114783-39.869531a8.519131 8.519131 0 1 0-17.038261 0c0 31.3504 30.498487 56.907792 68.153044 56.907792s68.153044-25.557392 68.153044-56.907792a8.519131 8.519131 0 0 0-8.51913-8.519131zM636.208923 434.134891a8.519131 8.519131 0 0 0 5.452244-14.993669 75.309114 75.309114 0 0 0-82.124419 0 8.519131 8.519131 0 0 0 10.904487 13.119461 50.092487 50.092487 0 0 1 30.157722-8.348748 51.114783 51.114783 0 0 1 30.328105 8.348748 8.519131 8.519131 0 0 0 5.281861 1.874208z"
        fill="#4C4497" p-id="2344"></path>
    <path
        d="M431.579408 420.504283m-33.90614 0a33.906139 33.906139 0 1 0 67.812279 0 33.906139 33.906139 0 1 0-67.812279 0Z"
        fill="#4C4497" p-id="2345"></path>
</svg>